<?xml version="1.0" encoding="utf-8"?>
<!-- Generator: Adobe Illustrator 18.1.1, SVG Export Plug-In . SVG Version: 6.00 Build 0)  -->
<svg version="1.0"  xmlns="http://www.w3.org/2000/svg" xmlns:xlink="http://www.w3.org/1999/xlink" x="0px" y="0px"
	 viewBox="0 0 48 48" enable-background="new 0 0 48 48" xml:space="preserve">
<g>
	<path fill="#8BC34A" d="M34,44H14c-1.1,0-2-0.9-2-2V8c0-1.1,0.9-2,2-2h20c1.1,0,2,0.9,2,2v34C36,43.1,35.1,44,34,44z"/>
	<path fill="#8BC34A" d="M28,13h-8c-0.6,0-1-0.4-1-1V5c0-0.6,0.4-1,1-1h8c0.6,0,1,0.4,1,1v7C29,12.6,28.6,13,28,13z"/>
</g>
</svg>
